<?xml version="1.0" encoding="UTF-8"?>
<svg width="1200pt" height="1200pt" version="1.1" viewBox="0 0 1200 1200" xmlns="http://www.w3.org/2000/svg">
 <g>
  <path d="m385.75 63.789c-4.7734 0.27344-9.2617 2.3633-12.547 5.8359s-5.1211 8.0703-5.1289 12.852c-0.011719 4.7812 1.8086 9.3867 5.082 12.871l462.57 504.64-462.57 504.64c-3.7656 3.5781-5.875 8.5547-5.832 13.746 0.042969 5.1914 2.2383 10.133 6.0586 13.645 3.8203 3.5156 8.9297 5.2891 14.105 4.8984s9.9609-2.9102 13.211-6.9609l471.98-514.89c0.089843-0.046875 0.18359-0.09375 0.27344-0.14062 3.2695-2.6367 5.5625-6.2891 6.5078-10.383 0.046874-0.14063 0.09375-0.28125 0.14062-0.42188 0.10938-0.45703 0.20313-0.91797 0.27734-1.3828v-0.42578c0.066406-0.50781 0.11328-1.0156 0.14062-1.5234v-0.42578c0.015625-0.46094 0.015625-0.92188 0-1.3828v-0.42578c-0.027343-0.50781-0.074219-1.0156-0.14062-1.5234-0.046875-0.14062-0.09375-0.28125-0.14453-0.42578-0.074219-0.46094-0.16406-0.92188-0.27344-1.3789-0.046876-0.14453-0.09375-0.28516-0.14453-0.42578-1.0742-4.0273-3.4609-7.5859-6.7812-10.105-0.089844-0.046875-0.18359-0.09375-0.27734-0.14062l-471.56-514.61c-3.7812-4.2344-9.2812-6.5234-14.949-6.2305z"/>
  <path d="m339.52 192.51c-5.0156-0.22656-9.9141 1.5703-13.598 4.9844-3.6836 3.418-5.8398 8.168-5.9883 13.191-0.15234 5.0195 1.7188 9.8906 5.1914 13.52l344.36 375.79-344.36 375.79c-3.7617 3.5781-5.8711 8.5547-5.8281 13.746 0.042969 5.1914 2.2344 10.133 6.0586 13.645 3.8203 3.5156 8.9258 5.2891 14.105 4.8984 5.1758-0.39453 9.957-2.9141 13.207-6.9609l353.91-386.03h0.003907c0.09375-0.046875 0.18359-0.09375 0.27734-0.14062 2.7539-2.2383 4.8203-5.2148 5.9492-8.582 0.050781-0.14062 0.097656-0.28125 0.14453-0.42578 0.15625-0.45313 0.29688-0.91406 0.41797-1.3828l0.14062-0.42188c0.0625-0.46094 0.11328-0.92188 0.14062-1.3828 0.050781-0.14063 0.097656-0.28516 0.14453-0.42578 0.066407-0.50781 0.11328-1.0156 0.14062-1.5234v-0.42578c0.015625-0.46094 0.015625-0.92188 0-1.3828v-0.42578c-0.027344-0.50781-0.074218-1.0156-0.14062-1.5234-0.046875-0.14062-0.09375-0.28125-0.14453-0.42188-0.074219-0.46484-0.16406-0.92578-0.27344-1.3828-0.046874-0.14453-0.09375-0.28516-0.14453-0.42578-1.0742-4.0273-3.4609-7.5859-6.7812-10.105-0.09375-0.046875-0.18359-0.09375-0.27734-0.14062l-353.5-385.75c-3.3438-3.8125-8.0859-6.1055-13.148-6.3633z"/>
 </g>
</svg>
